HIERARCHY
ROOT Hips
{
 OFFSET 0.000000 0.000000 0.000000
 CHANNELS 6 Xposition Yposition Zposition Yrotation Xrotation Zrotation
 JOINT Chest
 {
  OFFSET 0.000000 9.585900 0.002600
  CHANNELS 3 Yrotation Xrotation Zrotation
  JOINT Chest2
  {
   OFFSET 0.000000 9.601200 -0.005300
   CHANNELS 3 Yrotation Xrotation Zrotation
   JOINT Chest3
   {
    OFFSET 0.000000 9.561800 0.000000
    CHANNELS 3 Yrotation Xrotation Zrotation
    JOINT Chest4
    {
     OFFSET 0.000000 9.552100 0.000000
     CHANNELS 3 Yrotation Xrotation Zrotation
     JOINT Neck
     {
      OFFSET 0.000000 14.453000 0.000000
      CHANNELS 3 Yrotation Xrotation Zrotation
      JOINT Head
      {
       OFFSET 0.000000 8.936500 -0.011300
       CHANNELS 3 Yrotation Xrotation Zrotation
       End Site
       {
        OFFSET 0.000000 17.073600 -0.006000
       }
      }
     }
     JOINT RightCollar
     {
      OFFSET -2.921100 9.558500 0.000000
      CHANNELS 3 Yrotation Xrotation Zrotation
      JOINT RightShoulder
      {
       OFFSET -13.519700 0.000000 0.000000
       CHANNELS 3 Yrotation Xrotation Zrotation
       JOINT RightElbow
       {
        OFFSET 0.000000 -29.696600 0.000000
        CHANNELS 3 Yrotation Xrotation Zrotation
        JOINT RightWrist
        {
         OFFSET 0.000000 -24.004700 0.000000
         CHANNELS 3 Yrotation Xrotation Zrotation
         End Site
         {
          OFFSET 0.000000 -17.728500 0.000000
         }
        }
       }
      }
     }
     JOINT LeftCollar
     {
      OFFSET 2.921100 9.558500 0.000000
      CHANNELS 3 Yrotation Xrotation Zrotation
      JOINT LeftShoulder
      {
       OFFSET 13.519700 0.000000 0.000000
       CHANNELS 3 Yrotation Xrotation Zrotation
       JOINT LeftElbow
       {
        OFFSET 0.000000 -29.696600 0.000000
        CHANNELS 3 Yrotation Xrotation Zrotation
        JOINT LeftWrist
        {
         OFFSET 0.000000 -24.004700 0.000000
         CHANNELS 3 Yrotation Xrotation Zrotation
         End Site
         {
          OFFSET 0.000000 -17.728500 0.000000
         }
        }
       }
      }
     }
    }
   }
  }
 }
 JOINT RightHip
 {
  OFFSET -7.771700 -0.012900 -0.001300
  CHANNELS 3 Yrotation Xrotation Zrotation
  JOINT RightKnee
  {
   OFFSET 0.000000 -40.869800 0.001200
   CHANNELS 3 Yrotation Xrotation Zrotation
   JOINT RightAnkle
   {
    OFFSET 0.000000 -39.717900 0.002100
    CHANNELS 3 Yrotation Xrotation Zrotation
    JOINT RightToe
    {
     OFFSET 0.000000 -4.965400 11.033500
     CHANNELS 3 Yrotation Xrotation Zrotation
     End Site
     {
      OFFSET 0.000000 -1.423100 5.872300
     }
    }
   }
  }
 }
 JOINT LeftHip
 {
  OFFSET 7.771700 -0.012900 -0.001300
  CHANNELS 3 Yrotation Xrotation Zrotation
  JOINT LeftKnee
  {
   OFFSET 0.000000 -40.869800 0.001200
   CHANNELS 3 Yrotation Xrotation Zrotation
   JOINT LeftAnkle
   {
    OFFSET 0.000000 -39.717900 0.002100
    CHANNELS 3 Yrotation Xrotation Zrotation
    JOINT LeftToe
    {
     OFFSET 0.000000 -4.965400 11.033500
     CHANNELS 3 Yrotation Xrotation Zrotation
     End Site
     {
      OFFSET 0.000000 -1.423100 5.872300
     }
    }
   }
  }
 }
}
MOTION
Frames: 9
Frame Time: 0.008333
0.000000 85.388000 0.000000 0.000000 -5.767877 0.000000 0.000000 11.653817 0.000000 0.000000 -5.885947 0.000000 0.000000 -0.000000 0.000000 0.000000 -0.000000 0.000000 0.000000 12.528835 0.000000 0.000000 0.711642 0.000000 0.000000 -0.000000 0.000000 0.000000 0.000000 -90.000000 0.000000 -2.309062 0.000000 0.000000 2.309062 0.000000 0.000000 -0.000000 0.000000 0.000000 -0.000000 90.000000 0.000000 -2.309062 0.000000 0.000000 2.309062 0.000000 0.000000 8.520406 0.000000 0.000000 1.905762 0.000000 -0.000000 -4.658285 0.000000 0.000000 -0.000000 0.000000 0.000000 8.520406 0.000000 0.000000 1.905762 0.000000 -0.000000 -4.658285 0.000000 0.000000 -0.000000 0.000000
-29.146881 57.870685 12.933119 178.984751 -50.340307 -3.778773 3.536282 21.835907 3.052425 1.804923 12.499545 1.568384 2.318083 15.663459 2.026982 1.814898 12.451931 1.574331 2.614673 17.416195 3.580769 3.619237 -3.480177 5.727050 1.262966 6.589137 -1.114735 -24.433631 -17.857056 3.902058 -118.583593 -50.447284 154.865865 3.238448 -3.597285 -8.249846 -9.012939 2.420175 -0.118284 15.938883 -19.241249 2.210212 109.828942 -46.181571 -146.377284 5.315270 -2.224992 -6.180780 2.452432 -21.226809 -3.657013 -34.592416 73.713530 -38.908782 5.936775 -14.005069 11.298481 -0.030512 -0.077633 0.006221 -6.118575 -18.792126 5.653680 86.873129 83.008599 86.111027 0.514194 -22.101610 -17.116380 0.063767 0.067815 -0.014478
-29.148809 57.872332 12.934130 179.002592 -50.389197 -3.784495 3.529693 21.846941 3.054343 1.804196 12.495627 1.571621 2.329116 15.588486 2.042654 1.809040 12.468964 1.577106 2.603710 17.651296 3.622452 3.591200 -3.043520 5.808207 1.296843 6.601186 -1.077101 -24.196015 -18.020928 3.793108 -119.090089 -50.621398 155.265742 3.688898 -3.276618 -8.452182 -9.064947 2.360422 -0.178073 15.601608 -19.344821 2.493184 111.155265 -46.765554 -146.905031 4.700383 -1.777005 -5.696276 2.442322 -21.173042 -3.665503 -34.597740 73.704954 -38.919014 5.943994 -14.001941 11.305512 -0.029631 -0.078948 0.002017 -6.135081 -18.744382 5.634598 86.888754 83.004611 86.122602 0.520326 -22.100173 -17.117497 0.056441 0.065667 -0.013022
-29.149459 57.870518 12.939116 179.015041 -50.418553 -3.794742 3.536895 21.776152 3.071339 1.804199 12.489154 1.579125 2.329314 15.580348 2.052074 1.792090 12.533885 1.576876 2.606026 17.838087 3.665386 3.563358 -2.611974 5.893386 1.332047 6.562250 -1.028165 -23.901889 -18.197531 3.662855 -119.451419 -50.862634 155.524468 4.154564 -2.972195 -8.690041 -9.108835 2.259994 -0.216678 15.247562 -19.435802 2.770812 112.312489 -47.463022 -147.265720 4.213627 -1.367902 -5.218595 2.425775 -21.139438 -3.667346 -34.573691 73.698922 -38.899815 5.955061 -14.006119 11.307881 -0.033129 -0.070112 -0.005504 -6.151186 -18.717172 5.628368 86.898596 83.006010 86.134723 0.529702 -22.101957 -17.128069 0.057624 0.067408 -0.006367
-29.150729 57.873562 12.941125 179.040547 -50.491740 -3.811785 3.541591 21.749674 3.088297 1.805169 12.484732 1.585693 2.326097 15.597180 2.057921 1.778594 12.573630 1.579547 2.608466 18.026353 3.708863 3.533208 -2.182871 5.982529 1.357215 6.519105 -0.969691 -23.557611 -18.379346 3.510503 -119.677225 -51.187293 155.660088 4.587076 -2.679752 -8.975378 -9.155753 2.166043 -0.246520 14.893962 -19.511281 3.036623 113.237961 -48.270758 -147.482425 3.890678 -1.001311 -4.721694 2.400366 -21.058615 -3.672531 -34.553509 73.690400 -38.883163 5.970714 -14.008266 11.308238 -0.035915 -0.065355 -0.012665 -6.168631 -18.644520 5.617658 86.877527 83.002868 86.112207 0.528290 -22.095130 -17.133628 0.061475 0.059289 0.005912
-29.151853 57.875631 12.945242 179.065093 -50.561636 -3.830299 3.539039 21.780356 3.098789 1.805633 12.483288 1.588212 2.336456 15.553808 2.064751 1.800259 12.503453 1.589657 2.573889 18.326277 3.758667 3.499632 -1.750009 6.074461 1.338232 6.583552 -0.902081 -23.172126 -18.564005 3.346528 -119.726320 -51.605106 155.644698 4.970723 -2.382260 -9.320489 -9.238657 2.185701 -0.284008 14.536945 -19.567512 3.287192 113.865926 -49.156938 -147.554744 3.720747 -0.669571 -4.168491 2.382722 -20.984711 -3.674284 -34.586916 73.667769 -38.906215 5.989571 -13.998997 11.299648 -0.030345 -0.062816 -0.013103 -6.184951 -18.576136 5.613125 86.868987 82.997646 86.097679 0.521082 -22.091286 -17.132958 0.062888 0.057140 0.010051
-29.153053 57.877930 12.950531 179.085239 -50.636236 -3.846665 3.539027 21.815886 3.109017 1.806551 12.482099 1.590809 2.341123 15.532013 2.070134 1.810606 12.459558 1.594544 2.552163 18.584845 3.808267 3.462797 -1.308732 6.168439 1.330402 6.604170 -0.832040 -22.748997 -18.750664 3.180952 -119.510309 -52.113556 155.408615 5.342839 -2.042745 -9.741909 -9.300204 2.166017 -0.303629 14.154899 -19.601470 3.524836 114.101194 -50.087675 -147.406438 3.659466 -0.370913 -3.551057 2.367919 -20.906609 -3.673970 -34.575898 73.656759 -38.890508 5.988773 -13.989121 11.295844 -0.030976 -0.062049 -0.014609 -6.197302 -18.503647 5.610005 86.872674 82.997578 86.094495 0.520339 -22.088466 -17.128840 0.061203 0.055229 0.011070
-29.155603 57.879950 12.957359 179.103038 -50.710320 -3.855412 3.535091 21.755007 3.113721 1.809744 12.537569 1.598781 2.332906 15.529588 2.071287 1.812457 12.457275 1.598837 2.535360 18.827592 3.857029 3.424017 -0.857387 6.263576 1.330987 6.605797 -0.762881 -22.290549 -18.936364 3.016033 -118.972751 -52.707378 154.901462 5.720812 -1.618584 -10.234371 -9.350396 2.132091 -0.316497 13.737641 -19.613779 3.753756 113.821509 -51.022076 -146.899189 3.648478 -0.087724 -2.903588 2.351306 -20.827271 -3.684217 -34.524699 73.650052 -38.841142 6.006438 -13.989037 11.292526 -0.040149 -0.056411 -0.019107 -6.207506 -18.432244 5.602364 86.810139 82.993654 86.023019 0.506618 -22.078448 -17.123260 0.067537 0.052286 0.013867
-29.158613 57.882692 12.965026 179.117842 -50.790229 -3.861838 3.521113 21.739913 3.106259 1.818473 12.554437 1.606544 2.327778 15.505702 2.075849 1.812817 12.517549 1.601804 2.517094 19.032497 3.906596 3.383813 -0.397303 6.359638 1.336840 6.563678 -0.691934 -21.799676 -19.118214 2.849993 -118.109699 -53.383838 154.110681 6.089843 -1.091100 -10.778570 -9.401399 2.063797 -0.324947 13.295130 -19.606811 3.976347 112.964766 -51.933273 -145.954555 3.654555 0.199764 -2.246507 2.331676 -20.739490 -3.688062 -34.467233 73.642755 -38.794325 6.010977 -13.992897 11.294395 -0.031367 -0.048102 -0.021811 -6.211612 -18.353743 5.593575 86.742345 82.984915 85.940114 0.503528 -22.072408 -17.115416 0.060059 0.056819 0.016162
